<svg xmlns="http://www.w3.org/2000/svg" viewBox="0 0 37.5 42"><defs><style>.cls-1{fill:#fff;}</style></defs><g id="Layer_2" data-name="Layer 2"><g id="Layer_1-2" data-name="Layer 1"><path class="cls-1" d="M37.5,42H0V0H37.5ZM26.7,28.09V18.54h9.12c-.13-5.8-3.7-9.5-8.89-9.58a9.53,9.53,0,0,0-9.83,9C16.74,23.28,20.46,27.39,26.7,28.09Zm.81,5.82A18.34,18.34,0,0,0,24.27,32c-7.11-2-11.2-7.13-11-13.9C13.37,11.58,17.65,6.76,24.7,5c.68-.17,1.19-1.06,1.78-1.62a6,6,0,0,0-2.12-.73C15.07,3.3,8.55,14,11.6,23.45,13.85,30.48,20.26,35.09,27.51,33.91Zm-1.51,7,.76-1.13a9,9,0,0,0-2.57-1.39,20,20,0,0,1-17-17.12c-.14-.95-1.07-1.77-1.62-2.64-.28,1.05-.91,2.16-.76,3.14C6.35,31.61,14.44,40.79,26,40.91Z"/></g></g></svg>